<?xml version="1.0" standalone="no"?>
<!DOCTYPE svg PUBLIC "-//W3C//DTD SVG 20010904//EN"
 "http://www.w3.org/TR/2001/REC-SVG-20010904/DTD/svg10.dtd">
<svg version="1.0" xmlns="http://www.w3.org/2000/svg"
 width="226.000000pt" height="223.000000pt" viewBox="0 0 226.000000 223.000000"
 preserveAspectRatio="xMidYMid meet">

<g transform="translate(0.000000,223.000000) scale(0.100000,-0.100000)"
fill="#000000" stroke="none">
<path d="M451 2034 c-188 -51 -341 -224 -371 -420 -7 -47 -10 -240 -8 -555 3
-476 4 -485 26 -548 60 -165 186 -286 351 -335 48 -14 134 -16 685 -16 692 0
681 -1 797 61 113 61 197 161 241 288 23 65 23 70 23 586 0 477 -2 526 -19
588 -34 123 -132 246 -244 305 -120 63 -103 62 -796 61 -518 0 -641 -3 -685
-15z m899 -103 c0 -5 -6 -12 -12 -14 -8 -3 -6 -6 5 -6 24 -1 22 -21 -3 -21
-11 0 -20 -4 -20 -10 0 -5 9 -10 20 -10 11 0 20 -7 20 -15 0 -8 -9 -15 -20
-15 -11 0 -20 -4 -20 -10 0 -5 9 -10 20 -10 34 0 22 -18 -15 -22 l-35 -4 0 54
c0 44 4 57 23 73 24 20 37 24 37 10z m-665 -32 c4 -6 -2 -13 -14 -16 -12 -3
-21 -10 -21 -15 0 -6 9 -8 20 -5 13 3 20 0 20 -9 0 -8 -9 -14 -20 -14 -11 0
-20 -4 -20 -10 0 -5 11 -10 25 -10 16 0 25 -6 25 -15 0 -10 -11 -15 -35 -15
-32 0 -35 3 -40 38 -4 20 -9 45 -11 54 -4 12 3 18 23 21 15 2 31 5 35 6 4 0
10 -4 13 -10z m145 -5 c0 -8 -5 -12 -10 -9 -6 3 -19 3 -30 0 -24 -8 -27 -53
-5 -62 22 -8 30 4 15 22 -11 13 -9 15 14 15 22 0 26 -4 26 -30 0 -21 -5 -30
-17 -31 -32 -2 -58 3 -70 13 -18 15 -16 63 3 82 21 21 74 21 74 0z m80 -39 c0
-38 -4 -55 -13 -55 -8 0 -12 17 -13 55 0 38 4 55 13 55 9 0 13 -17 13 -55z
m145 31 c21 -31 11 -70 -22 -85 -52 -24 -92 34 -63 90 16 28 65 25 85 -5z
m195 14 c0 -5 -7 -10 -15 -10 -11 0 -15 -12 -15 -45 0 -33 -4 -45 -15 -45 -11
0 -15 11 -15 40 0 27 -5 43 -15 46 -30 12 -14 24 30 24 25 0 45 -4 45 -10z
m240 1 c0 -5 -14 -11 -31 -15 -26 -5 -30 -10 -27 -33 2 -22 9 -29 31 -31 37
-4 29 -28 -9 -25 -50 4 -71 58 -37 95 16 18 73 26 73 9z m92 -16 c12 -27 28
-24 28 6 0 10 5 19 10 19 15 0 8 -112 -7 -117 -6 -3 -21 13 -32 34 l-20 38 -1
-32 c0 -24 -5 -33 -16 -33 -14 0 -15 7 -10 38 3 20 6 45 6 55 0 26 29 21 42
-8z m142 -27 c-16 -51 -35 -88 -45 -88 -12 0 -8 36 10 83 13 33 46 39 35 5z
m-1195 -37 c17 -32 24 -38 46 -34 14 3 25 1 25 -5 0 -10 -58 -38 -64 -31 -15
16 -46 92 -41 99 10 16 13 12 34 -29z m1318 -13 c19 -15 5 -30 -17 -18 -28 15
-38 12 -51 -12 -10 -18 -8 -24 10 -39 25 -20 11 -35 -18 -19 -39 20 -35 75 7
99 18 11 48 6 69 -11z m-1389 -34 c51 -36 5 -122 -50 -93 -13 7 -26 17 -30 23
-13 19 -9 54 8 70 20 20 43 20 72 0z m1186 -24 c108 -41 188 -123 223 -230 16
-49 18 -94 18 -415 -1 -316 -3 -367 -18 -415 -23 -70 -85 -159 -98 -139 -7 12
-9 11 -9 -1 0 -8 -12 -24 -27 -34 -26 -20 -64 -22 -137 -10 -27 4 -36 3 -32
-5 4 -6 0 -12 -11 -12 -24 -2 -103 2 -127 7 -14 2 -17 -1 -13 -16 7 -29 -2
-25 -13 6 -6 14 -14 22 -20 19 -6 -4 -10 7 -10 24 0 33 -1 34 -24 25 -9 -3
-13 -10 -10 -15 3 -5 1 -9 -5 -9 -5 0 -12 6 -14 13 -4 9 -6 9 -6 0 -1 -6 3
-14 7 -17 11 -6 2 -76 -9 -76 -5 0 -9 9 -9 20 0 27 -26 25 -36 -2 -6 -18 -8
-13 -11 27 l-4 50 -14 -33 c-8 -17 -19 -32 -25 -32 -16 0 -12 18 8 30 15 9 14
10 -8 8 -32 -4 -40 -37 -11 -45 26 -7 28 -23 3 -23 -38 0 -54 40 -28 69 13 14
11 16 -20 17 -29 1 -32 0 -18 -11 12 -8 13 -14 6 -19 -12 -7 -5 -37 12 -48 7
-5 4 -8 -7 -8 -10 0 -20 7 -23 15 -8 20 -24 19 -24 -1 0 -8 -4 -12 -10 -9 -5
3 -10 15 -10 26 0 11 -10 30 -21 42 -18 18 -21 19 -15 4 3 -10 6 -23 6 -28 0
-6 4 -8 9 -5 4 3 6 -6 3 -20 -4 -20 -7 -22 -19 -12 -11 9 -19 9 -34 0 -26 -16
-25 1 1 52 l19 39 -24 -23 c-13 -13 -22 -27 -18 -33 3 -6 1 -7 -5 -3 -8 5 -9
13 -3 25 7 13 6 18 -4 18 -8 0 -12 -4 -9 -9 3 -4 -2 -8 -10 -8 -21 0 -20 -10
1 -25 20 -15 11 -45 -13 -45 -9 0 -22 8 -29 17 -23 32 -246 40 -283 10 -7 -5
-15 -7 -19 -3 -3 3 -2 6 4 6 6 0 14 7 17 16 6 15 4 15 -17 1 -18 -12 -26 -12
-40 -2 -9 6 -15 15 -12 19 3 3 0 2 -7 -4 -20 -17 -38 10 -38 56 0 43 0 43 26
33 15 -5 28 -8 30 -6 3 2 -13 11 -33 19 l-38 14 4 -50 3 -51 -26 25 c-15 13
-41 54 -59 89 l-32 66 0 400 c0 393 0 401 22 448 13 27 36 65 52 86 29 37 108
98 115 90 2 -2 6 -31 10 -64 3 -33 8 -84 12 -114 6 -45 5 -53 -7 -46 -8 5 -6
-1 4 -12 10 -12 17 -30 16 -40 -1 -10 0 -29 4 -43 3 -14 8 -42 11 -64 l5 -38
-22 18 c-22 19 -22 19 1 -7 12 -14 22 -37 22 -51 0 -21 6 -28 31 -33 17 -4 33
-4 36 -1 4 3 -1 6 -10 6 -9 0 -17 7 -17 16 0 9 5 12 13 8 6 -4 4 2 -7 14 -11
12 -16 30 -13 41 3 11 1 21 -3 23 -5 2 -10 37 -12 78 -1 41 -6 77 -9 80 -4 3
-9 32 -12 65 -3 33 -9 87 -12 121 -7 53 -5 62 10 68 10 3 19 5 21 4 2 -3 11
-82 13 -124 1 -7 80 -9 256 -6 224 3 260 2 307 -14 58 -20 139 -23 236 -10 67
10 62 4 78 83 4 20 -1 22 -59 28 -37 4 -80 2 -104 -4 -54 -15 -169 1 -218 31
-33 19 -41 20 -69 9 -104 -43 -98 -43 -248 -21 -78 12 -149 25 -157 30 -10 6
158 10 441 10 436 0 460 -1 512 -20z m288 -27 c37 -33 10 -103 -41 -103 -47 0
-69 77 -29 104 29 20 47 20 70 -1z m-1611 -66 c-14 -17 -5 -43 17 -52 11 -4
23 2 34 15 22 27 43 18 27 -11 -30 -56 -109 -38 -109 25 0 36 19 61 34 46 6
-6 5 -14 -3 -23z m22 -609 c7 -21 -4 -38 -23 -38 -23 0 -34 16 -26 35 7 18 43
20 49 3z m1637 -13 c0 -18 -5 -25 -19 -25 -11 0 -23 5 -26 10 -11 18 3 40 25
40 15 0 20 -7 20 -25z m41 -80 c-1 -15 -24 -12 -29 3 -3 9 2 13 12 10 10 -1
17 -7 17 -13z m-1661 -40 c0 -19 -4 -35 -10 -35 -5 0 -10 9 -10 20 0 11 -4 20
-10 20 -5 0 -10 -9 -10 -20 0 -11 -7 -20 -15 -20 -8 0 -15 9 -15 20 0 13 -7
20 -20 20 -11 0 -20 7 -20 15 0 12 13 15 55 15 l55 0 0 -35z m1661 -32 c5 -14
7 -34 4 -45 -6 -15 -15 -18 -58 -16 -49 3 -52 5 -55 31 -5 39 10 52 58 54 35
2 42 -1 51 -24z m-1661 -78 c0 -37 -28 -63 -47 -44 -6 6 -19 6 -36 0 -22 -9
-27 -8 -27 5 0 9 9 18 20 21 11 3 20 9 20 14 0 5 -9 9 -20 9 -11 0 -20 7 -20
15 0 12 13 15 55 15 l55 0 0 -35z m1624 -81 c49 -7 57 -24 16 -34 -33 -8 -36
-26 -5 -34 34 -9 32 -26 -4 -26 -51 0 -91 12 -91 27 0 11 7 13 25 9 20 -5 25
-3 25 13 0 10 -9 21 -20 24 -22 6 -27 27 -6 27 7 0 34 -3 60 -6z m-1622 -30
c20 -13 4 -32 -47 -57 -53 -26 -55 -26 -55 -7 0 11 5 20 10 20 6 0 10 7 10 15
0 8 -7 15 -15 15 -8 0 -15 7 -15 16 0 14 8 16 52 10 28 -4 55 -9 60 -12z
m1543 -117 c0 -26 4 -33 24 -35 15 -2 28 3 33 12 11 20 28 21 28 2 0 -21 -48
-56 -68 -49 -25 9 -52 34 -52 49 0 23 20 67 28 60 4 -4 7 -22 7 -39z m-1526
-24 l-22 -35 32 16 c48 25 40 -3 -12 -36 -52 -33 -68 -23 -44 27 l17 35 -30
-15 c-50 -26 -38 9 13 38 56 32 76 19 46 -30z m981 -63 c0 -22 -4 -40 -10 -40
-5 0 -10 18 -10 40 0 22 5 40 10 40 6 0 10 -18 10 -40z m551 -53 c-17 -17 -99
52 -86 73 4 6 24 -5 51 -27 26 -23 40 -41 35 -46z m-1436 41 c14 -6 25 -17 25
-25 0 -16 -12 -17 -27 -2 -6 6 -20 8 -32 4 -26 -8 -29 -50 -5 -63 12 -7 13
-11 5 -17 -17 -10 -51 24 -51 52 0 23 31 63 50 63 5 0 21 -5 35 -12z m1315
-63 c18 -30 24 -33 40 -23 29 19 38 -1 10 -22 -14 -11 -28 -20 -32 -20 -11 0
-68 87 -61 94 12 12 22 6 43 -29z m-1258 -40 c-12 -25 -26 -45 -32 -45 -15 0
-12 15 12 65 15 30 25 42 32 35 7 -7 3 -25 -12 -55z m1188 30 c6 -8 10 -20 7
-27 -2 -7 3 -21 11 -31 12 -13 13 -20 4 -29 -8 -8 -17 -5 -32 13 l-21 24 4
-28 c7 -47 -24 -28 -39 23 -8 25 -14 46 -14 48 0 4 43 21 56 21 6 1 17 -6 24
-14z m-1072 -12 c2 -8 -5 -13 -19 -13 -21 0 -21 -1 -6 -18 37 -41 3 -87 -45
-61 -26 14 -14 27 19 21 l28 -5 -22 25 c-23 24 -29 49 -16 62 11 11 56 2 61
-11z m122 -9 c0 -8 -4 -13 -9 -10 -13 9 -39 -3 -45 -21 -8 -20 11 -43 36 -43
11 0 18 -5 15 -12 -6 -18 -59 -12 -74 9 -19 24 -16 50 7 73 24 24 70 27 70 4z
m124 0 c29 -29 17 -80 -22 -95 -34 -13 -72 12 -72 48 0 53 59 83 94 47z m156
-34 c0 -39 -4 -51 -20 -60 -21 -11 -40 -6 -40 11 0 5 7 9 15 9 11 0 15 12 15
45 0 33 4 45 15 45 11 0 15 -12 15 -50z m136 25 c14 -21 14 -30 4 -54 -24 -59
-100 -41 -100 24 0 56 65 77 96 30z m114 9 c0 -11 -6 -14 -20 -9 -11 3 -20 2
-20 -4 0 -5 9 -12 19 -16 35 -11 37 -57 4 -69 -19 -8 -53 2 -53 15 0 5 12 9
28 9 l27 1 -29 23 c-37 31 -29 66 15 66 20 0 29 -5 29 -16z m120 8 c0 -5 -12
-13 -27 -19 -26 -10 -26 -11 -5 -12 28 -1 30 -31 2 -31 -11 0 -20 -4 -20 -10
0 -5 11 -10 25 -10 14 0 25 -4 25 -10 0 -5 -18 -10 -40 -10 l-40 0 0 55 0 55
40 0 c22 0 40 -4 40 -8z m178 -4 c24 -31 23 -57 -2 -83 -31 -31 -41 -31 -71
-1 -38 38 -13 96 41 96 12 0 26 -6 32 -12z"/>
<path d="M994 1876 c-9 -23 0 -51 17 -54 20 -4 30 28 17 52 -11 20 -27 21 -34
2z"/>
<path d="M396 1752 c-3 -5 2 -18 10 -30 26 -38 65 -22 44 18 -11 20 -44 27
-54 12z"/>
<path d="M686 1545 c2 -17 7 -60 9 -95 3 -36 9 -67 13 -71 4 -3 43 0 87 6 44
7 73 13 64 14 -9 0 -19 8 -23 16 -4 10 1 14 16 12 14 -1 24 4 26 14 2 13 -3
15 -22 12 -27 -6 -42 22 -31 57 10 30 53 27 65 -6 14 -35 13 -77 -2 -92 -9 -9
-5 -12 20 -12 29 0 32 3 32 33 0 17 3 42 6 55 5 18 2 22 -15 22 -12 0 -21 6
-21 15 0 12 -19 15 -109 15 -96 0 -110 2 -114 18 -2 9 -3 3 -1 -13z m108 -92
c5 -52 3 -63 -9 -63 -11 0 -15 12 -15 46 0 40 -2 45 -15 34 -21 -17 -20 3 1
36 22 33 30 22 38 -53z"/>
<path d="M1076 1563 c-46 -4 -48 -5 -28 -19 26 -18 39 -80 23 -106 -10 -17 -9
-18 14 -12 14 3 61 7 106 8 77 1 81 0 101 -26 23 -33 62 -36 148 -13 30 8 76
15 102 15 39 0 50 -4 68 -27 l22 -28 -64 -6 c-34 -3 -98 -16 -141 -27 -95 -27
-107 -27 -107 -3 0 14 -13 24 -44 36 -43 17 -47 16 -217 -18 -96 -20 -210 -41
-254 -48 -44 -6 -81 -13 -83 -14 -2 -2 0 -14 4 -29 l6 -26 153 0 c85 0 164 -4
177 -9 17 -6 41 0 98 25 97 43 114 44 108 4 l-5 -30 86 0 c75 0 93 4 145 30
87 45 172 36 152 -16 -5 -12 -2 -15 10 -10 8 3 19 6 24 6 5 0 11 13 15 30 6
25 -2 40 -54 107 -34 45 -69 102 -79 132 l-18 54 -73 -2 c-41 -1 -84 -7 -98
-12 -40 -15 -83 -10 -116 13 -32 23 -88 29 -181 21z"/>
<path d="M953 1543 c24 -4 28 -8 22 -26 -3 -12 -9 -41 -12 -64 -6 -46 -2 -49
44 -37 21 6 21 8 8 27 -18 26 -20 78 -3 95 9 9 1 12 -37 11 -32 -1 -39 -4 -22
-6z"/>
<path d="M1026 1522 c-8 -13 4 -71 15 -78 10 -6 12 7 9 46 -2 29 -15 46 -24
32z"/>
<path d="M842 1493 c5 -25 28 -28 28 -4 0 12 -6 21 -16 21 -9 0 -14 -7 -12
-17z"/>
<path d="M712 1340 c0 -14 2 -19 5 -12 2 6 2 18 0 25 -3 6 -5 1 -5 -13z"/>
<path d="M513 1270 c0 -25 2 -35 4 -22 2 12 2 32 0 45 -2 12 -4 2 -4 -23z"/>
<path d="M1730 1250 c-19 -11 -31 -19 -27 -20 11 0 67 29 67 35 0 7 -1 7 -40
-15z"/>
<path d="M1218 1203 c6 -2 18 -2 25 0 6 3 1 5 -13 5 -14 0 -19 -2 -12 -5z"/>
<path d="M1117 1179 c12 -12 24 -21 27 -18 2 2 -8 13 -22 23 l-27 19 22 -24z"/>
<path d="M668 1173 c7 -3 16 -2 19 1 4 3 -2 6 -13 5 -11 0 -14 -3 -6 -6z"/>
<path d="M733 1163 c9 -2 23 -2 30 0 6 3 -1 5 -18 5 -16 0 -22 -2 -12 -5z"/>
<path d="M858 1163 c12 -2 32 -2 45 0 12 2 2 4 -23 4 -25 0 -35 -2 -22 -4z"/>
<path d="M968 1153 c6 -2 18 -2 25 0 6 3 1 5 -13 5 -14 0 -19 -2 -12 -5z"/>
<path d="M1348 1153 c18 -2 45 -2 60 0 15 2 0 4 -33 4 -33 0 -45 -2 -27 -4z"/>
<path d="M1020 1143 c8 -3 34 -14 58 -24 23 -10 42 -16 42 -13 0 8 -83 44
-100 43 -13 -1 -13 -1 0 -6z"/>
<path d="M1258 1143 c6 -2 18 -2 25 0 6 3 1 5 -13 5 -14 0 -19 -2 -12 -5z"/>
<path d="M1493 1143 c9 -2 25 -2 35 0 9 3 1 5 -18 5 -19 0 -27 -2 -17 -5z"/>
<path d="M1633 1143 c9 -2 23 -2 30 0 6 3 -1 5 -18 5 -16 0 -22 -2 -12 -5z"/>
<path d="M1169 1111 c-13 -10 -28 -19 -32 -19 -5 0 -11 -3 -14 -5 -7 -8 20 -3
34 6 16 10 20 0 22 -56 1 -41 -1 -48 -16 -45 -12 2 -18 12 -18 28 0 20 -6 26
-27 28 -25 3 -28 0 -28 -27 0 -23 -5 -31 -18 -31 -16 0 -18 7 -14 55 4 53 3
55 -22 55 -24 0 -26 -3 -26 -46 0 -38 -3 -45 -16 -40 -9 3 -18 6 -20 6 -2 0
-4 7 -4 15 0 9 -9 15 -25 15 -15 0 -25 -6 -25 -14 0 -12 -20 -26 -36 -26 -2 0
-4 20 -4 45 0 41 -2 45 -25 45 -24 0 -25 -3 -25 -55 0 -48 -2 -55 -20 -55 -16
0 -20 7 -20 30 0 25 -4 30 -25 30 -21 0 -25 -5 -25 -30 0 -20 -5 -30 -15 -30
-12 0 -15 13 -15 55 l0 55 -35 0 -35 0 0 -55 0 -55 -45 0 -45 0 0 55 c0 42 -3
55 -15 55 -13 0 -15 -22 -15 -142 l1 -143 74 -42 c41 -24 81 -43 90 -43 8 0
15 -4 15 -9 0 -29 175 -91 254 -91 42 1 105 31 140 69 l30 31 158 0 158 0 -1
53 c-1 28 -4 42 -6 30 -4 -22 -9 -23 -104 -23 l-99 0 0 158 0 159 -32 -4 -33
-4 25 15 c14 8 20 15 14 16 -6 0 -22 -8 -35 -19z m-204 -171 c9 -16 11 -30 6
-30 -5 0 -12 7 -15 17 -6 14 -8 14 -21 -3 -8 -10 -15 -16 -15 -12 0 9 22 58
26 58 2 0 10 -13 19 -30z m-80 -20 c7 0 23 -11 36 -24 22 -23 25 -24 41 -9 15
13 18 13 18 2 0 -17 -20 -49 -20 -32 0 7 -9 10 -20 8 -13 -3 -23 2 -27 13 -7
19 -23 32 -39 32 -19 0 -3 -48 18 -53 12 -3 17 -10 13 -17 -5 -8 -13 -6 -26 6
-11 10 -19 12 -19 6 0 -7 -7 -12 -15 -12 -20 0 -19 -17 3 -29 26 -15 1 -12
-27 3 l-24 13 32 19 c35 20 35 22 21 59 -9 23 -8 26 6 21 8 -3 22 -6 29 -6z
m160 -22 c-4 -13 -17 -34 -30 -48 -22 -24 -22 -26 -5 -43 16 -16 18 -16 34 2
16 17 16 19 0 25 -9 4 -14 9 -11 12 3 3 18 -1 33 -9 l28 -15 -33 -17 c-30 -15
-32 -20 -27 -50 5 -22 2 -36 -6 -41 -7 -4 -10 -4 -6 1 4 4 -10 17 -32 27 -22
11 -40 25 -40 31 0 5 -9 2 -20 -8 -19 -18 -20 -17 -20 5 0 16 4 20 15 16 8 -3
15 0 16 7 0 9 2 9 6 -1 2 -6 9 -10 14 -6 5 3 12 -3 16 -13 14 -39 53 -45 45
-8 -2 15 -11 25 -21 25 -13 0 -18 9 -18 35 0 26 5 35 18 35 15 0 29 19 29 40
0 4 -10 6 -22 3 -19 -4 -20 -3 -8 6 8 6 23 11 33 11 14 0 17 -5 12 -22z m-140
-88 c3 -6 -2 -13 -12 -17 -34 -13 -46 -49 -13 -40 11 3 20 1 20 -4 0 -5 -3 -9
-7 -9 -5 0 -19 -3 -32 -7 -21 -5 -23 -4 -16 18 10 31 35 69 46 69 4 0 11 -5
14 -10z m50 -84 c17 22 20 12 5 -17 -15 -26 -25 -24 -39 9 -10 25 -10 26 4 8
15 -20 15 -20 30 0z"/>
<path d="M1515 1100 c-7 -11 22 -26 32 -16 4 3 -2 7 -13 8 -10 1 15 4 56 8
l75 6 -72 2 c-39 1 -75 -3 -78 -8z"/>
<path d="M1645 1085 c-16 -7 -24 -14 -17 -14 9 -1 11 -9 7 -23 -6 -22 -5 -22
6 -3 6 11 19 28 27 38 18 20 16 20 -23 2z"/>
<path d="M1588 1073 c7 -3 16 -2 19 1 4 3 -2 6 -13 5 -11 0 -14 -3 -6 -6z"/>
<path d="M1547 1029 c4 -13 8 -18 11 -10 2 7 -1 18 -6 23 -8 8 -9 4 -5 -13z"/>
<path d="M1541 973 c-10 -26 -10 -27 4 -9 8 11 15 23 15 28 0 15 -7 8 -19 -19z"/>
<path d="M1630 984 c0 -3 11 -20 25 -39 19 -24 22 -34 13 -38 -11 -4 -11 -6 0
-6 7 -1 10 -6 6 -13 -5 -7 -3 -8 6 -3 10 6 12 4 6 -10 -6 -18 -6 -18 15 1 21
18 22 18 16 1 -4 -11 -4 -24 0 -30 12 -19 12 -67 0 -74 -6 -4 -8 0 -4 11 4 10
3 15 -3 11 -14 -9 -12 -28 4 -61 14 -25 13 -30 -5 -53 -12 -14 -24 -26 -27
-27 -7 -1 -13 -3 -52 -18 -8 -4 1 -4 20 -1 19 3 44 15 57 27 26 24 48 82 39
103 -3 8 -1 15 5 15 9 0 6 21 -8 74 -5 17 -113 142 -113 130z m75 -84 c3 -5 2
-10 -4 -10 -5 0 -13 5 -16 10 -3 6 -2 10 4 10 5 0 13 -4 16 -10z"/>
<path d="M1475 898 l-40 -43 43 40 c23 21 42 40 42 42 0 8 -9 0 -45 -39z"/>
<path d="M1686 817 c3 -10 9 -15 12 -12 3 3 0 11 -7 18 -10 9 -11 8 -5 -6z"/>
<path d="M1700 720 c0 -11 4 -20 9 -20 5 0 7 9 4 20 -3 11 -7 20 -9 20 -2 0
-4 -9 -4 -20z"/>
<path d="M1448 705 c6 -11 23 -31 39 -45 l28 -25 -30 35 c-47 55 -48 56 -37
35z"/>
<path d="M1533 633 c9 -2 25 -2 35 0 9 3 1 5 -18 5 -19 0 -27 -2 -17 -5z"/>
<path d="M985 591 c-14 -6 -7 -8 28 -9 26 -1 67 -10 90 -20 38 -16 47 -17 87
-5 43 14 176 13 285 -2 22 -2 11 2 -24 10 -82 18 -194 21 -252 6 -40 -11 -55
-10 -114 8 -74 23 -72 23 -100 12z"/>
<path d="M875 579 c-16 -6 -61 -14 -100 -18 -65 -8 -66 -8 -20 -9 28 -1 84 7
125 18 41 10 64 18 50 18 -14 0 -38 -4 -55 -9z"/>
<path d="M1730 574 c-32 -13 -33 -14 -5 -8 17 4 36 7 43 7 6 0 12 4 12 9 0 11
-8 9 -50 -8z"/>
<path d="M628 573 c7 -3 16 -2 19 1 4 3 -2 6 -13 5 -11 0 -14 -3 -6 -6z"/>
<path d="M668 563 c6 -2 18 -2 25 0 6 3 1 5 -13 5 -14 0 -19 -2 -12 -5z"/>
<path d="M1653 553 c9 -2 23 -2 30 0 6 3 -1 5 -18 5 -16 0 -22 -2 -12 -5z"/>
<path d="M916 533 c-9 -29 0 -58 17 -61 21 -4 22 14 2 22 -18 6 -20 33 -3 38
9 3 9 6 1 11 -7 4 -14 0 -17 -10z"/>
<path d="M1284 541 c4 -6 2 -18 -4 -26 -10 -12 -9 -15 4 -15 18 0 22 35 4 46
-7 4 -8 3 -4 -5z"/>
<path d="M1538 543 c12 -2 32 -2 45 0 12 2 2 4 -23 4 -25 0 -35 -2 -22 -4z"/>
<path d="M1021 504 c0 -11 3 -14 6 -6 3 7 2 16 -1 19 -3 4 -6 -2 -5 -13z"/>
<path d="M1100 510 c0 -5 4 -10 9 -10 6 0 13 5 16 10 3 6 -1 10 -9 10 -9 0
-16 -4 -16 -10z"/>
<path d="M1876 1694 c-19 -19 -16 -38 6 -42 19 -4 50 26 45 42 -6 18 -33 18
-51 0z"/>
<path d="M1936 871 c-4 -7 -5 -15 -2 -18 9 -9 19 4 14 18 -4 11 -6 11 -12 0z"/>
<path d="M1980 865 c0 -8 5 -15 10 -15 6 0 10 7 10 15 0 8 -4 15 -10 15 -5 0
-10 -7 -10 -15z"/>
<path d="M312 799 c2 -6 8 -10 13 -10 5 0 11 4 13 10 2 6 -4 11 -13 11 -9 0
-15 -5 -13 -11z"/>
<path d="M300 670 c0 -5 7 -7 15 -4 8 4 15 8 15 10 0 2 -7 4 -15 4 -8 0 -15
-4 -15 -10z"/>
<path d="M1675 380 c3 -5 10 -10 16 -10 5 0 9 5 9 10 0 6 -7 10 -16 10 -8 0
-12 -4 -9 -10z"/>
<path d="M841 371 c-7 -5 -11 -19 -9 -32 4 -31 42 -33 46 -3 4 25 -19 46 -37
35z"/>
<path d="M1124 366 c-9 -23 0 -51 17 -54 21 -4 32 24 19 49 -13 23 -28 25 -36
5z"/>
<path d="M1547 374 c-4 -4 -7 -20 -7 -36 0 -22 5 -28 21 -28 17 0 20 5 17 32
-3 31 -17 45 -31 32z"/>
</g>
</svg>
