<?xml version="1.0" standalone="no"?>
<!DOCTYPE svg PUBLIC "-//W3C//DTD SVG 20010904//EN"
 "http://www.w3.org/TR/2001/REC-SVG-20010904/DTD/svg10.dtd">
<svg version="1.0" xmlns="http://www.w3.org/2000/svg"
 width="1440.000000pt" height="960.000000pt" viewBox="0 0 1440.000000 960.000000"
 preserveAspectRatio="xMidYMid meet">

<g transform="translate(0.000000,960.000000) scale(0.100000,-0.100000)"
fill="#000000" stroke="none">
<path d="M8800 6821 c-62 -33 -207 -165 -253 -231 l-32 -45 -5 -167 -5 -167
-75 -73 c-119 -117 -156 -166 -164 -220 -13 -84 62 -78 -933 -78 l-882 0 -62
-55 c-34 -30 -67 -55 -74 -55 -21 0 -81 28 -94 44 -7 9 -29 19 -49 22 -20 4
-50 15 -67 26 -29 17 -75 18 -975 18 -723 0 -949 3 -958 12 -17 17 -15 39 7
62 11 12 34 48 51 81 31 58 32 64 32 185 1 123 0 126 -33 188 -45 87 -119 159
-210 205 -72 36 -76 37 -184 37 -75 0 -117 -4 -130 -13 -11 -7 -36 -20 -55
-27 -54 -21 -97 -56 -190 -151 -97 -99 -121 -136 -155 -234 -30 -85 -32 -148
-5 -215 11 -28 20 -59 20 -69 0 -10 11 -30 25 -45 33 -36 33 -82 0 -108 l-25
-20 2 -741 3 -742 816 -3 817 -2 56 56 56 56 0 323 c0 186 4 335 10 349 l10
26 188 0 c133 0 192 -4 200 -12 9 -9 12 -109 12 -389 0 -330 2 -380 16 -393
13 -14 65 -16 409 -16 l393 0 47 44 c47 45 62 48 96 20 8 -8 31 -17 50 -20 19
-4 48 -14 64 -23 27 -14 122 -17 847 -21 618 -4 820 -8 829 -17 7 -7 11 -27
11 -45 -3 -59 21 -172 42 -202 40 -55 84 -93 142 -122 41 -20 60 -36 65 -54 4
-14 7 -99 8 -189 l1 -164 34 -51 c19 -28 52 -66 74 -83 l41 -33 1099 0 1100 0
99 98 c79 77 107 111 132 164 l31 67 0 1491 0 1491 -22 52 c-24 58 -97 141
-143 164 -16 8 -41 21 -55 28 -21 13 -179 15 -1035 15 l-1010 0 -55 -29z
m2104 -111 c16 -8 43 -32 60 -53 l31 -39 3 -1512 2 -1512 -36 -47 c-20 -26
-43 -47 -50 -47 -7 0 -20 -8 -30 -17 -16 -17 -80 -18 -1002 -21 l-985 -2 -46
22 c-25 12 -62 37 -81 57 l-35 35 -3 223 c-4 257 4 238 -112 267 -111 28 -140
81 -140 256 0 58 -5 112 -10 120 -8 13 -120 16 -877 20 l-868 5 -65 32 c-74
36 -117 77 -154 147 -22 42 -26 62 -26 139 0 79 3 96 26 136 39 67 82 109 146
142 l57 29 569 0 c428 0 571 3 580 12 7 7 12 40 12 79 0 59 -3 70 -22 83 -20
14 -98 16 -651 16 -493 0 -629 3 -632 13 -3 6 -6 99 -8 205 -3 170 -1 194 13
207 15 14 116 15 841 13 l824 -3 55 -32 c63 -37 101 -74 121 -118 10 -21 23
-31 41 -33 l27 -3 3 245 c3 229 4 246 24 272 37 51 87 83 143 94 30 5 60 15
67 21 10 8 14 67 16 239 l3 229 39 40 c21 22 55 44 75 49 22 6 412 10 1031 9
863 -2 999 -4 1024 -17z m-6945 -232 c38 -12 54 -24 121 -92 42 -42 50 -58 65
-121 38 -161 -31 -311 -173 -376 -89 -40 -193 -41 -267 -3 -51 27 -155 120
-155 139 0 5 -7 24 -16 40 -9 17 -19 60 -21 97 -5 55 -1 77 18 125 60 148 178
220 339 206 30 -2 70 -9 89 -15z m159 -770 c15 -15 18 -1223 3 -1233 -14 -8
-547 -9 -560 0 -17 10 -15 1232 2 1238 6 3 131 6 278 6 194 1 268 -2 277 -11z
m2017 -17 c94 -58 137 -107 160 -187 12 -43 15 -132 15 -538 l0 -486 -26 -10
c-33 -13 -505 -13 -538 0 l-26 10 0 360 c0 395 -2 411 -57 425 -15 4 -176 6
-358 6 -295 -2 -331 -3 -342 -18 -10 -13 -13 -109 -13 -399 0 -339 -2 -383
-16 -388 -28 -11 -524 -7 -545 4 -18 10 -19 28 -19 618 0 466 3 611 12 620 10
10 203 12 863 10 l850 -3 40 -24z"/>
<path d="M9942 5525 c-35 -12 -69 -28 -75 -34 -6 -6 -16 -11 -23 -11 -21 0
-130 -113 -159 -165 -32 -57 -54 -146 -55 -224 -1 -166 104 -322 272 -403 60
-30 69 -31 190 -32 116 -1 129 1 157 22 17 12 41 27 53 32 88 39 192 164 208
250 5 28 15 60 21 71 13 24 8 102 -10 174 -65 255 -340 407 -579 320z m133
-219 c79 -32 139 -74 161 -111 10 -16 23 -34 29 -40 7 -5 20 -44 30 -85 15
-66 16 -82 4 -144 -18 -95 -47 -128 -134 -150 -83 -21 -96 -20 -183 6 -63 18
-82 30 -136 82 -45 43 -66 71 -71 96 -4 19 -14 46 -22 58 -19 31 -20 125 -1
154 8 13 20 42 26 66 7 23 14 42 16 42 1 0 34 11 72 25 87 31 134 31 209 1z"/>
<path d="M7116 4854 c-11 -10 -16 -34 -16 -69 0 -93 -35 -85 379 -85 272 0
370 3 379 12 15 15 16 112 2 139 -10 18 -25 19 -370 19 -313 0 -361 -2 -374
-16z"/>
<path d="M3324 3766 c-3 -8 -4 -70 -2 -136 4 -155 8 -160 135 -160 63 0 84 3
81 13 -3 7 -29 14 -62 17 -79 7 -86 19 -86 146 0 56 -3 109 -6 118 -8 20 -53
21 -60 2z"/>
<path d="M3617 3773 c-4 -3 -7 -73 -7 -155 0 -148 0 -148 23 -148 42 0 47 16
47 155 0 89 -4 135 -12 143 -13 13 -41 16 -51 5z"/>
<path d="M5090 3750 c-10 -25 -23 -33 -76 -50 -35 -11 -73 -24 -83 -29 -27
-15 -44 -90 -30 -132 19 -59 40 -69 140 -69 49 0 91 5 94 10 12 20 14 285 2
292 -22 14 -35 8 -47 -22z m-11 -104 c7 -8 11 -38 9 -72 -3 -53 -6 -60 -29
-68 -38 -13 -72 -1 -92 34 -19 32 -17 56 9 98 11 16 24 22 53 22 21 0 44 -6
50 -14z"/>
<path d="M5493 3763 c-4 -10 -7 -79 -7 -153 l-1 -135 34 0 35 0 -2 145 c-1 80
-2 148 -2 153 0 15 -51 6 -57 -10z"/>
<path d="M5912 3772 c-9 -7 -12 -44 -10 -153 3 -136 4 -144 23 -144 15 0 21 9
26 38 3 20 8 40 12 43 3 3 34 9 69 14 35 4 83 17 105 29 37 18 43 26 48 64 5
30 2 55 -9 80 l-15 37 -118 0 c-65 0 -124 -4 -131 -8z m179 -32 c10 -6 25 -23
34 -39 13 -26 13 -30 -3 -44 -25 -22 -66 -30 -118 -22 -50 7 -62 23 -48 63 16
45 88 67 135 42z"/>
<path d="M3764 3695 c-10 -25 6 -35 57 -35 56 0 89 -13 89 -36 0 -19 -40 -34
-93 -34 -48 0 -59 -6 -76 -37 -9 -18 -8 -29 4 -53 l16 -31 107 3 107 3 3 80
c2 44 1 89 -2 101 -7 25 -54 41 -144 48 -49 5 -64 3 -68 -9z m150 -158 c15
-24 -6 -37 -60 -37 -53 0 -79 25 -49 47 27 19 95 13 109 -10z"/>
<path d="M6580 3692 c-19 -9 -48 -29 -64 -44 -26 -25 -28 -32 -22 -73 5 -29
17 -56 36 -76 26 -29 33 -31 95 -31 62 0 69 2 101 33 29 28 34 40 34 79 0 57
-19 84 -75 110 -53 24 -60 24 -105 2z m99 -46 c24 -29 25 -83 2 -115 -28 -39
-81 -44 -105 -9 -21 30 -20 96 1 120 20 22 85 24 102 4z"/>
<path d="M8080 3704 c-67 -22 -90 -39 -101 -72 -16 -48 -5 -110 24 -139 20
-20 35 -25 83 -26 33 0 68 2 79 6 29 10 75 80 75 114 -1 39 -47 89 -99 108
-24 8 -44 15 -45 14 0 0 -8 -3 -16 -5z m74 -60 c24 -23 21 -99 -4 -124 -32
-32 -73 -26 -109 15 -17 20 -31 39 -31 43 0 11 31 55 48 70 22 17 77 15 96 -4z"/>
<path d="M4052 3688 c-17 -17 -15 -32 9 -62 11 -14 25 -43 31 -63 15 -56 47
-93 80 -93 23 0 34 9 58 47 17 26 30 54 30 64 0 9 9 28 20 42 23 28 27 77 7
77 -24 0 -46 -24 -59 -65 -14 -42 -53 -70 -82 -59 -9 3 -21 25 -27 48 -10 39
-34 76 -49 76 -3 0 -11 -5 -18 -12z"/>
<path d="M4426 3687 c-35 -11 -40 -17 -53 -61 -16 -55 -11 -104 15 -135 14
-17 31 -21 89 -23 67 -3 95 4 80 18 -4 4 -24 8 -46 10 -55 3 -81 13 -81 28 0
22 23 34 69 38 65 4 61 23 -5 34 -32 5 -59 14 -61 21 -6 16 48 43 85 43 34 0
43 7 35 26 -6 17 -71 18 -127 1z"/>
<path d="M5282 3687 c-22 -8 -41 -27 -57 -56 -32 -55 -31 -61 6 -115 l30 -46
75 0 c41 0 74 4 74 9 0 13 -26 21 -65 21 -46 0 -65 9 -65 31 0 20 19 27 85 31
44 3 55 21 15 26 -42 4 -100 22 -100 31 0 17 26 30 75 38 34 6 50 13 50 23 0
19 -77 24 -123 7z"/>
<path d="M6275 3686 c-18 -12 -20 -24 -18 -102 2 -49 3 -95 3 -102 0 -9 10
-12 28 -10 26 3 27 5 32 83 3 44 9 86 13 93 12 19 45 14 57 -8 6 -11 17 -20
24 -20 24 0 26 28 5 54 -17 22 -29 26 -73 26 -28 0 -60 -6 -71 -14z"/>
<path d="M6878 3683 c-25 -11 -40 -25 -47 -46 -31 -88 10 -168 93 -180 72 -11
72 -46 0 -47 -17 0 -37 -6 -44 -14 -9 -12 -5 -16 25 -22 61 -11 123 2 150 33
23 26 24 35 25 150 0 111 -2 123 -19 133 -28 15 -140 11 -183 -7z m130 -35
c18 -18 15 -123 -4 -138 -29 -25 -75 -16 -105 21 -26 32 -27 35 -13 68 8 19
19 40 25 48 14 16 81 17 97 1z"/>
<path d="M7175 3689 c-9 -14 -10 -207 -1 -216 4 -4 15 -2 24 4 13 8 17 26 17
84 0 71 1 74 28 87 26 13 31 12 52 -8 40 -38 64 1 25 40 -16 16 -33 20 -79 20
-33 0 -63 -5 -66 -11z"/>
<path d="M7457 3688 c-21 -6 -42 -20 -49 -31 -17 -32 -13 -133 6 -162 15 -23
22 -25 96 -25 47 0 80 4 80 10 0 6 -8 10 -17 11 -67 4 -87 8 -100 21 -13 13
-12 17 2 32 9 9 29 16 45 16 36 0 61 10 54 21 -3 5 -20 9 -39 9 -18 0 -41 8
-50 17 -16 16 -16 18 5 35 12 10 37 18 54 18 39 0 50 8 35 27 -13 15 -67 16
-122 1z"/>
<path d="M7713 3690 c-47 -19 -52 -85 -10 -115 12 -8 42 -15 67 -15 45 0 70
-13 70 -35 0 -18 -47 -35 -96 -35 -32 0 -44 -4 -41 -12 2 -7 11 -13 20 -12 10
0 48 1 86 2 81 2 101 16 101 68 0 40 -24 54 -90 54 -50 0 -90 15 -90 35 0 20
40 35 94 35 47 0 80 22 50 34 -23 9 -135 6 -161 -4z"/>
</g>
</svg>
