<?xml version="1.0" standalone="no"?>
<!DOCTYPE svg PUBLIC "-//W3C//DTD SVG 20010904//EN"
 "http://www.w3.org/TR/2001/REC-SVG-20010904/DTD/svg10.dtd">
<svg version="1.0" xmlns="http://www.w3.org/2000/svg"
 width="500.000000pt" height="177.000000pt" viewBox="0 0 500.000000 177.000000"
 preserveAspectRatio="xMidYMid meet">

<g transform="translate(0.000000,177.000000) scale(0.100000,-0.100000)"
fill="#000000" stroke="none">
<path d="M7 1764 c-4 -4 -7 -259 -7 -566 l0 -558 525 0 525 0 0 85 0 85 -430
0 -430 0 -2 478 -3 477 -85 3 c-47 2 -89 0 -93 -4z"/>
<path d="M3943 1763 l-143 -4 0 -559 0 -560 344 0 c388 0 453 7 571 64 124 58
209 163 256 316 34 110 32 264 -5 377 -59 183 -197 314 -371 353 -51 11 -412
19 -652 13z m631 -192 c57 -19 80 -33 126 -80 79 -79 105 -154 104 -306 0
-131 -23 -204 -85 -266 -91 -91 -176 -111 -494 -113 l-240 -1 -3 398 -2 399
262 -4 c240 -4 269 -6 332 -27z"/>
<path d="M1200 1200 l0 -560 525 0 525 0 0 85 0 85 -435 0 -435 0 2 163 3 162
333 3 332 2 0 85 0 85 -335 0 -336 0 3 138 3 137 433 3 432 2 0 85 0 85 -525
0 -525 0 0 -560z"/>
<path d="M1162 160 c3 -93 5 -101 31 -127 22 -22 37 -28 71 -28 78 0 106 48
106 183 0 65 -2 72 -20 72 -19 0 -20 -7 -20 -95 0 -105 -14 -135 -65 -135 -51
0 -65 30 -65 135 0 90 -1 95 -21 95 -20 0 -21 -4 -17 -100z"/>
<path d="M1502 133 c2 -88 7 -128 15 -130 9 -3 13 23 15 97 l3 101 75 -98 c41
-53 80 -96 85 -95 6 1 11 54 13 127 2 105 0 125 -12 125 -12 0 -16 -19 -18
-96 l-3 -95 -73 95 c-40 53 -80 96 -88 96 -12 0 -14 -20 -12 -127z"/>
<path d="M1852 133 c2 -90 7 -128 16 -131 9 -3 12 27 12 127 0 111 -2 131 -15
131 -13 0 -15 -18 -13 -127z"/>
<path d="M2000 251 c0 -13 91 -235 101 -246 6 -5 13 -5 20 2 15 15 110 245
104 251 -15 15 -38 -19 -73 -108 l-39 -101 -43 105 c-25 64 -48 106 -56 106
-8 0 -14 -4 -14 -9z"/>
<path d="M2342 133 l3 -128 74 0 c49 0 76 4 78 12 3 8 -15 13 -59 15 l-63 3 0
40 0 40 48 3 c33 2 47 7 47 18 0 10 -13 14 -50 14 l-50 0 0 40 0 40 65 0 c51
0 65 3 65 15 0 12 -16 15 -80 15 l-81 0 3 -127z"/>
<path d="M2622 133 c2 -105 6 -128 18 -128 11 0 14 13 14 53 0 47 2 52 21 52
14 0 33 -16 55 -47 34 -48 48 -63 63 -63 15 0 6 23 -27 66 l-34 44 29 29 c35
36 37 64 4 96 -20 21 -34 25 -85 25 l-61 0 3 -127z m126 64 c5 -39 -14 -57
-58 -57 l-38 0 1 45 0 46 46 -3 c42 -3 46 -5 49 -31z"/>
<path d="M2930 240 c-23 -23 -26 -58 -7 -83 6 -9 33 -25 60 -36 37 -16 47 -25
47 -44 0 -43 -45 -61 -92 -36 -13 7 -23 8 -30 1 -16 -16 49 -45 85 -38 46 9
67 33 67 78 0 37 -2 39 -57 66 -65 30 -76 53 -40 77 19 12 30 13 51 5 35 -13
56 -2 31 17 -28 20 -92 16 -115 -7z"/>
<path d="M3190 130 c0 -109 2 -130 15 -130 13 0 15 21 15 130 0 109 -2 130
-15 130 -13 0 -15 -21 -15 -130z"/>
<path d="M3340 245 c0 -11 11 -15 40 -15 l40 0 0 -115 c0 -96 3 -115 15 -115
12 0 15 19 15 114 l0 115 43 3 c77 6 39 23 -58 26 -80 2 -95 0 -95 -13z"/>
<path d="M3631 238 c7 -13 27 -47 45 -76 28 -43 34 -62 34 -107 0 -42 3 -55
15 -55 11 0 15 12 15 51 0 43 7 62 45 123 49 80 52 86 31 86 -8 0 -31 -27 -52
-61 l-37 -61 -33 53 c-19 30 -34 57 -34 62 0 4 -9 7 -20 7 -18 0 -19 -3 -9
-22z"/>
</g>
</svg>
